{
	"asset":{
		"generator":"Khronos glTF Blender I/O v4.2.57",
		"version":"2.0"
	},
	"extensionsUsed":[
		"KHR_materials_specular",
		"KHR_materials_sheen",
		"KHR_materials_ior",
		"KHR_texture_transform"
	],
	"extensionsRequired":[
		"KHR_texture_transform"
	],
	"scene":0,
	"scenes":[
		{
			"name":"Scene",
			"nodes":[
				0
			]
		}
	],
	"nodes":[
		{
			"mesh":0,
			"name":"Cloud Pillow",
			"scale":[
				3.8243722915649414,
				3.8243722915649414,
				3.8243722915649414
			]
		}
	],
	"materials":[
		{
			"doubleSided":true,
			"extensions":{
				"KHR_materials_specular":{
					"specularFactor":0
				},
				"KHR_materials_sheen":{
					"sheenColorFactor":[
						1.0,
						1.0,
						1.0
					],
					"sheenRoughnessFactor":0.5
				},
				"KHR_materials_ior":{
					"ior":1.4500000476837158
				}
			},
			"name":"Pillow",
			"normalTexture":{
				"extensions":{
					"KHR_texture_transform":{
						"offset":[
							0,
							-31
						],
						"scale":[
							32,
							32
						]
					}
				},
				"index":0
			},
			"pbrMetallicRoughness":{
				"metallicFactor":0,
				"roughnessFactor":0.6954545378684998
			}
		}
	],
	"meshes":[
		{
			"name":"Plane.015",
			"primitives":[
				{
					"attributes":{
						"POSITION":0,
						"NORMAL":1,
						"TEXCOORD_0":2
					},
					"indices":3,
					"material":0
				}
			]
		}
	],
	"textures":[
		{
			"sampler":0,
			"source":0
		}
	],
	"images":[
		{
			"mimeType":"image/jpeg",
			"name":"preview",
			"uri":"preview.jpg"
		}
	],
	"accessors":[
		{
			"bufferView":0,
			"componentType":5126,
			"count":5501,
			"max":[
				0.3387662172317505,
				0.22226189076900482,
				0.1248871460556984
			],
			"min":[
				-0.3362383246421814,
				-0.15406960248947144,
				-0.11563698947429657
			],
			"type":"VEC3"
		},
		{
			"bufferView":1,
			"componentType":5126,
			"count":5501,
			"type":"VEC3"
		},
		{
			"bufferView":2,
			"componentType":5126,
			"count":5501,
			"type":"VEC2"
		},
		{
			"bufferView":3,
			"componentType":5123,
			"count":22440,
			"type":"SCALAR"
		}
	],
	"bufferViews":[
		{
			"buffer":0,
			"byteLength":66012,
			"byteOffset":0,
			"target":34962
		},
		{
			"buffer":0,
			"byteLength":66012,
			"byteOffset":66012,
			"target":34962
		},
		{
			"buffer":0,
			"byteLength":44008,
			"byteOffset":132024,
			"target":34962
		},
		{
			"buffer":0,
			"byteLength":44880,
			"byteOffset":176032,
			"target":34963
		}
	],
	"samplers":[
		{
			"magFilter":9729,
			"minFilter":9987
		}
	],
	"buffers":[
		{
			"byteLength":220912,
			"uri":"pillow_cloud.bin"
		}
	]
}
