<svg width="286" height="40" viewBox="0 0 286 40" fill="none" xmlns="http://www.w3.org/2000/svg">
<g clip-path="url(#clip0_513_619)">
<path d="M251.237 22.5072H268.509V16.8561H251.237V5.76626H270.938V0H244.899V39.9818H271.502V34.2156H251.237V22.5072Z" fill="white"/>
<path d="M286 34.2095H280.202V40H286V34.2095Z" fill="white"/>
<path d="M20.7568 26.4969H20.6901L7.94697 0.145521L7.87412 0H0V39.9818H6.33815V11.1202H6.36244L17.3996 33.6577L17.4238 33.7123H24.017L34.9934 11.1808V39.9818H41.3316V0H33.5121L20.7568 26.4969Z" fill="white"/>
<path d="M74.71 0H67.0605L52.9818 39.8424L52.9332 39.9818H59.8663L63.3633 29.668H78.3405L81.8374 39.9818H88.7705L74.7707 0.175838L74.71 0ZM70.8913 7.45794L76.5252 24.1322H65.1724L70.8124 7.45794H70.8913Z" fill="white"/>
<path d="M129.343 34.7916L128.955 28.6797C128.882 26.4605 128.378 24.6476 127.461 23.2954C126.684 22.1495 125.519 21.2703 123.995 20.6821C125.731 19.9727 127.127 18.8813 128.147 17.4382C129.343 15.7526 129.944 13.6608 129.944 11.2112C129.944 7.74291 128.688 4.97195 126.205 2.98317C123.746 1.01864 120.346 0.0181885 116.09 0.0181885H100.378V39.9394H106.887V23.7805H116.26C118.44 23.7805 120.03 24.2777 120.996 25.2539C121.961 26.2362 122.507 27.9764 122.611 30.4138L122.774 34.5975C122.811 36.9319 123.224 38.6842 123.995 39.7999L124.092 39.9394H130.916L130.618 39.4422C129.944 38.3144 129.519 36.75 129.337 34.7916H129.343ZM106.887 5.74807H115.762C118.179 5.74807 120.049 6.26345 121.33 7.27603C122.586 8.27042 123.218 9.7802 123.218 11.7629C123.218 13.7456 122.592 15.4313 121.366 16.5348C120.127 17.6504 118.391 18.2143 116.206 18.2143H106.887V5.74807Z" fill="white"/>
<path d="M163.93 0H156.28L142.275 39.6362L142.153 39.9818H149.086L152.583 29.668H167.56L171.033 39.9091L171.057 39.9818H177.99L163.991 0.175838L163.93 0ZM160.111 7.45794L165.751 24.1322H154.398L160.038 7.45794H160.111Z" fill="white"/>
<path d="M210.373 26.4969H210.306L197.521 0.0606336L197.49 0H189.616V39.9818H195.954V11.1202H195.979L206.973 33.5668L207.04 33.7123H213.633L224.61 11.1808V39.9818H230.948V0H223.128L210.373 26.4969Z" fill="white"/>
</g>
<defs>
<clipPath id="clip0_513_619">
<rect width="286" height="40" fill="white"/>
</clipPath>
</defs>
</svg>
